<svg xmlns="http://www.w3.org/2000/svg" xmlns:xlink="http://www.w3.org/1999/xlink" width="500" zoomAndPan="magnify" viewBox="0 0 375 374.999991" height="500" preserveAspectRatio="xMidYMid meet" version="1.0"><defs><g/><clipPath id="c3c03ac806"><path d="M 50.132812 180.195312 L 71.789062 180.195312 L 71.789062 201.851562 L 50.132812 201.851562 Z M 50.132812 180.195312 " clip-rule="nonzero"/></clipPath><clipPath id="1ffadb239c"><path d="M 60.960938 180.195312 C 54.980469 180.195312 50.132812 185.042969 50.132812 191.023438 C 50.132812 197.003906 54.980469 201.851562 60.960938 201.851562 C 66.941406 201.851562 71.789062 197.003906 71.789062 191.023438 C 71.789062 185.042969 66.941406 180.195312 60.960938 180.195312 Z M 60.960938 180.195312 " clip-rule="nonzero"/></clipPath><clipPath id="5fa37d3973"><path d="M 47.351562 191.1875 L 89.351562 191.1875 L 89.351562 224.9375 L 47.351562 224.9375 Z M 47.351562 191.1875 " clip-rule="nonzero"/></clipPath><clipPath id="5b443e3a4f"><path d="M 26 191.023438 L 68 191.023438 L 68 224.773438 L 26 224.773438 Z M 26 191.023438 " clip-rule="nonzero"/></clipPath><clipPath id="88dc07735e"><path d="M 0 144.109375 L 100.5 144.109375 L 100.5 225 L 0 225 Z M 0 144.109375 " clip-rule="nonzero"/></clipPath></defs><g clip-path="url(#c3c03ac806)"><g clip-path="url(#1ffadb239c)"><path fill="#000000" d="M 50.132812 180.195312 L 71.789062 180.195312 L 71.789062 201.851562 L 50.132812 201.851562 Z M 50.132812 180.195312 " fill-opacity="1" fill-rule="nonzero"/></g></g><g clip-path="url(#5fa37d3973)"><path fill="#000000" d="M -1.945312 232.453125 C -1.921875 232.480469 -1.910156 232.503906 -1.757812 232.636719 C -1.605469 232.773438 -1.3125 233.015625 -0.726562 233.480469 L -0.675781 233.480469 L 16.445312 247.769531 C 16.496094 247.769531 16.496094 247.769531 16.542969 247.816406 C 16.738281 247.964844 16.835938 248.0625 16.984375 248.160156 C 17.179688 248.304688 17.375 248.503906 17.617188 248.746094 C 17.8125 248.890625 17.960938 249.039062 18.105469 249.132812 C 18.25 249.28125 18.445312 249.429688 18.691406 249.621094 C 19.179688 250.109375 19.765625 250.550781 20.351562 250.988281 L 20.789062 251.332031 L 20.789062 251.378906 L 27.179688 256.644531 C 27.179688 256.695312 27.226562 256.695312 27.226562 256.742188 C 28.9375 258.207031 30.789062 259.71875 32.59375 261.179688 C 33.667969 262.058594 34.691406 262.890625 35.816406 263.863281 L 35.863281 263.914062 L 39.328125 266.789062 L 39.425781 266.886719 C 39.765625 267.15625 40.023438 267.375 40.234375 267.5625 C 40.449219 267.753906 40.621094 267.910156 40.792969 268.058594 C 43.179688 270.128906 45.09375 271.796875 47.921875 271.796875 C 48.621094 271.796875 49.375 271.695312 50.207031 271.472656 C 51.425781 271.128906 53.816406 269.035156 55.621094 267.425781 C 56.453125 266.691406 57.183594 266.058594 57.671875 265.71875 L 62.011719 262.109375 L 62.109375 262.011719 L 62.160156 262.011719 C 62.453125 261.71875 62.746094 261.476562 63.085938 261.179688 L 66.308594 258.546875 C 66.453125 258.449219 66.550781 258.351562 66.648438 258.207031 C 66.941406 257.914062 67.234375 257.621094 67.820312 257.472656 C 67.917969 257.425781 68.015625 257.425781 68.160156 257.425781 C 68.699219 257.425781 69.136719 257.867188 69.136719 258.402344 L 69.085938 260.011719 C 69.039062 263.425781 68.988281 270.203125 69.28125 271.082031 C 69.332031 271.230469 69.378906 271.277344 69.378906 271.328125 C 69.378906 271.328125 69.378906 271.328125 69.476562 271.375 C 69.839844 271.644531 70.71875 271.710938 71.730469 271.710938 C 72.359375 271.710938 73.039062 271.6875 73.671875 271.667969 C 74.257812 271.617188 74.796875 271.617188 75.1875 271.617188 L 81.089844 271.617188 C 82.359375 271.667969 83.1875 271.667969 83.429688 270.886719 C 83.675781 270.058594 83.578125 263.425781 83.527344 257.085938 C 83.429688 250.890625 83.382812 244.890625 83.773438 244.160156 C 83.96875 243.769531 84.457031 243.382812 84.894531 243.039062 C 85.042969 242.941406 85.234375 242.792969 85.332031 242.695312 C 86.308594 241.769531 95.285156 234.210938 97.824219 232.164062 C 98.214844 231.820312 98.214844 231.527344 97.96875 231.089844 L 97.675781 230.699219 L 97.628906 230.652344 C 97.480469 230.503906 97.433594 230.359375 97.335938 230.261719 C 97.238281 230.164062 97.1875 230.066406 97.089844 229.96875 C 97.042969 229.96875 97.042969 229.921875 96.992188 229.871094 L 94.261719 226.601562 L 94.214844 226.554688 L 93.726562 226.015625 C 93.480469 225.871094 93.238281 225.824219 92.992188 225.871094 C 92.652344 225.917969 92.261719 226.113281 91.921875 226.457031 C 91.871094 226.457031 91.871094 226.503906 91.820312 226.503906 L 48.546875 262.5 C 48.207031 262.839844 47.667969 262.890625 47.28125 262.546875 L 34.402344 251.914062 L 34.351562 251.914062 C 32.789062 250.5 30.691406 248.792969 28.59375 247.085938 C 25.914062 244.941406 23.226562 242.746094 21.519531 241.183594 C 21.226562 240.890625 20.835938 240.550781 20.449219 240.257812 L 20.007812 239.917969 L 19.960938 239.867188 L 3.910156 226.503906 L 3.859375 226.457031 C 2.882812 225.53125 2.101562 225.871094 1.371094 226.652344 C 0.980469 227.089844 0.542969 227.675781 0.105469 228.261719 C -0.335938 228.796875 -0.726562 229.332031 -1.214844 229.871094 L -2.238281 231.136719 L -2.238281 231.1875 L -2.285156 231.285156 L -2.285156 231.917969 C -2.09375 232.164062 -1.996094 232.308594 -1.945312 232.453125 Z M 12.496094 223.285156 L 12.496094 194.21875 C 12.496094 193.757812 12.59375 193.328125 12.765625 192.9375 C 12.933594 192.546875 13.175781 192.195312 13.472656 191.878906 C 14.054688 191.292969 14.886719 190.902344 15.8125 190.902344 L 20.546875 190.902344 C 17.910156 194.851562 18.203125 203.242188 19.082031 206.3125 C 20.203125 210.070312 23.863281 217.238281 24.644531 218.214844 C 25.421875 219.238281 25.863281 219.53125 26.203125 219.726562 C 26.546875 219.871094 28.496094 220.214844 28.644531 220.214844 C 28.839844 220.214844 29.425781 222.992188 29.375 223.480469 C 29.277344 223.96875 28.742188 225.382812 28.742188 226.066406 C 28.742188 226.699219 28.839844 229.1875 29.179688 230.359375 C 29.523438 231.527344 30.9375 233.773438 30.9375 233.773438 C 30.9375 233.773438 33.082031 234.503906 33.472656 234.746094 C 33.863281 234.992188 34.59375 235.429688 35.277344 235.382812 C 35.960938 235.382812 37.035156 235.625 39.765625 233.480469 C 42.5 231.382812 43.765625 230.40625 43.765625 229.527344 C 43.765625 228.652344 43.765625 226.992188 43.183594 226.554688 C 42.644531 226.113281 42.597656 224.457031 42.15625 224.113281 C 41.667969 223.726562 40.59375 222.847656 40.449219 222.699219 C 40.351562 222.554688 39.960938 219.53125 39.960938 219.53125 C 39.960938 219.53125 38.742188 219.921875 38.644531 219.628906 L 38.351562 218.554688 L 37.816406 218.507812 L 37.816406 218.214844 C 37.667969 216.652344 35.617188 216.945312 34.546875 217.824219 C 34.011719 218.3125 33.179688 218.605469 32.984375 217.578125 C 32.839844 216.847656 32.691406 215.582031 33.035156 214.898438 C 33.472656 213.96875 34.839844 212.996094 34.839844 212.3125 C 34.886719 211.582031 34.402344 208.070312 35.132812 207.824219 C 35.863281 207.632812 37.71875 208.65625 38.253906 209.484375 C 38.789062 210.3125 40.011719 211.433594 40.695312 211.582031 C 41.328125 211.726562 43.425781 211.777344 44.109375 211.289062 C 44.742188 210.800781 46.109375 209.140625 46.207031 208.949219 C 46.304688 208.703125 47.621094 208.363281 47.914062 208.410156 C 48.207031 208.460938 48.9375 210.167969 49.28125 210.265625 C 49.621094 210.410156 51.964844 210.460938 51.964844 210.460938 L 57.28125 218.75 L 58.941406 217.53125 L 53.425781 209.191406 C 53.425781 209.191406 53.671875 208.214844 53.378906 206.996094 C 53.085938 205.824219 51.132812 203.679688 51.132812 203.339844 C 51.132812 202.949219 52.695312 200.414062 53.085938 199.972656 C 53.425781 199.535156 55.183594 198.023438 55.183594 198.023438 C 55.183594 198.023438 55.964844 195.679688 55.914062 195.195312 C 55.867188 194.707031 63.136719 191.195312 64.113281 191.046875 C 64.355469 191.046875 64.597656 191 64.746094 190.902344 L 79.96875 190.902344 C 80.84375 190.902344 81.675781 191.292969 82.308594 191.878906 L 82.359375 191.925781 C 82.894531 192.558594 83.234375 193.339844 83.234375 194.21875 L 83.234375 223.285156 L 47.867188 252.890625 L 12.496094 223.285156 " fill-opacity="1" fill-rule="nonzero"/></g><g clip-path="url(#5b443e3a4f)"><path fill="#000000" d="M 117.292969 183.507812 C 117.269531 183.480469 117.257812 183.457031 117.105469 183.324219 C 116.953125 183.191406 116.660156 182.945312 116.074219 182.480469 L 116.027344 182.480469 L 98.902344 168.191406 C 98.855469 168.191406 98.855469 168.191406 98.804688 168.144531 C 98.609375 167.996094 98.511719 167.898438 98.367188 167.800781 C 98.171875 167.65625 97.976562 167.460938 97.730469 167.21875 C 97.535156 167.070312 97.390625 166.921875 97.242188 166.828125 C 97.097656 166.679688 96.902344 166.535156 96.65625 166.339844 C 96.171875 165.851562 95.585938 165.414062 95 164.972656 L 94.5625 164.632812 L 94.5625 164.582031 L 88.167969 159.316406 C 88.167969 159.265625 88.121094 159.265625 88.121094 159.21875 C 86.414062 157.753906 84.558594 156.242188 82.753906 154.78125 C 81.679688 153.902344 80.65625 153.070312 79.535156 152.097656 L 79.484375 152.046875 L 76.023438 149.171875 L 75.921875 149.074219 C 75.582031 148.804688 75.328125 148.585938 75.113281 148.398438 C 74.898438 148.207031 74.726562 148.050781 74.558594 147.902344 C 72.171875 145.832031 70.253906 144.164062 67.425781 144.164062 C 66.726562 144.164062 65.972656 144.265625 65.140625 144.488281 C 63.921875 144.832031 61.53125 146.925781 59.726562 148.539062 C 58.898438 149.269531 58.164062 149.902344 57.675781 150.242188 L 53.335938 153.851562 L 53.238281 153.949219 L 53.1875 153.949219 C 52.898438 154.242188 52.605469 154.488281 52.261719 154.78125 L 49.042969 157.414062 C 48.894531 157.511719 48.796875 157.609375 48.703125 157.753906 C 48.410156 158.046875 48.117188 158.339844 47.53125 158.488281 C 47.433594 158.535156 47.335938 158.535156 47.1875 158.535156 C 46.652344 158.535156 46.210938 158.097656 46.210938 157.558594 L 46.261719 155.949219 C 46.3125 152.535156 46.359375 145.757812 46.066406 144.878906 C 46.019531 144.730469 45.96875 144.683594 45.96875 144.636719 C 45.96875 144.636719 45.96875 144.636719 45.871094 144.585938 C 45.511719 144.316406 44.628906 144.25 43.617188 144.25 C 42.988281 144.25 42.3125 144.273438 41.675781 144.292969 C 41.089844 144.34375 40.554688 144.34375 40.164062 144.34375 L 34.261719 144.34375 C 32.992188 144.292969 32.164062 144.292969 31.917969 145.074219 C 31.675781 145.902344 31.773438 152.535156 31.820312 158.878906 C 31.917969 165.070312 31.96875 171.070312 31.578125 171.800781 C 31.382812 172.191406 30.894531 172.582031 30.453125 172.921875 C 30.308594 173.019531 30.113281 173.167969 30.015625 173.265625 C 29.039062 174.191406 20.0625 181.75 17.527344 183.800781 C 17.136719 184.140625 17.136719 184.433594 17.378906 184.871094 L 17.671875 185.261719 L 17.722656 185.3125 C 17.867188 185.457031 17.914062 185.601562 18.015625 185.703125 C 18.113281 185.800781 18.160156 185.894531 18.257812 185.992188 C 18.304688 185.992188 18.304688 186.042969 18.355469 186.089844 L 21.085938 189.359375 L 21.136719 189.40625 L 21.625 189.945312 C 21.867188 190.089844 22.113281 190.136719 22.355469 190.089844 C 22.699219 190.042969 23.089844 189.847656 23.429688 189.503906 C 23.476562 189.503906 23.476562 189.457031 23.527344 189.457031 L 66.800781 153.460938 C 67.140625 153.121094 67.679688 153.070312 68.070312 153.414062 L 80.949219 164.046875 L 80.996094 164.046875 C 82.558594 165.460938 84.65625 167.167969 86.753906 168.875 C 89.4375 171.019531 92.121094 173.214844 93.828125 174.777344 C 94.121094 175.070312 94.511719 175.410156 94.902344 175.703125 L 95.339844 176.042969 L 95.390625 176.09375 L 111.441406 189.457031 L 111.488281 189.503906 C 112.464844 190.433594 113.246094 190.089844 113.976562 189.308594 C 114.367188 188.871094 114.808594 188.285156 115.246094 187.699219 C 115.683594 187.164062 116.074219 186.628906 116.5625 186.089844 L 117.589844 184.824219 L 117.589844 184.773438 L 117.636719 184.675781 L 117.636719 184.042969 C 117.441406 183.800781 117.34375 183.652344 117.292969 183.507812 Z M 102.855469 192.675781 L 102.855469 221.742188 C 102.855469 222.207031 102.757812 222.632812 102.585938 223.023438 C 102.414062 223.414062 102.171875 223.765625 101.878906 224.082031 C 101.292969 224.667969 100.464844 225.058594 99.535156 225.058594 L 94.804688 225.058594 C 97.441406 221.109375 97.144531 212.722656 96.265625 209.648438 C 95.144531 205.890625 91.488281 198.722656 90.707031 197.746094 C 89.925781 196.722656 89.488281 196.429688 89.144531 196.234375 C 88.804688 196.089844 86.851562 195.746094 86.707031 195.746094 C 86.511719 195.746094 85.925781 192.96875 85.972656 192.480469 C 86.070312 191.992188 86.609375 190.578125 86.609375 189.894531 C 86.609375 189.261719 86.511719 186.773438 86.167969 185.601562 C 85.828125 184.433594 84.414062 182.1875 84.414062 182.1875 C 84.414062 182.1875 82.265625 181.457031 81.875 181.214844 C 81.484375 180.96875 80.753906 180.53125 80.070312 180.582031 C 79.386719 180.582031 78.316406 180.335938 75.582031 182.480469 C 72.851562 184.578125 71.582031 185.554688 71.582031 186.433594 C 71.582031 187.308594 71.582031 188.96875 72.167969 189.40625 C 72.703125 189.847656 72.753906 191.503906 73.191406 191.847656 C 73.679688 192.238281 74.753906 193.113281 74.898438 193.261719 C 74.996094 193.40625 75.386719 196.429688 75.386719 196.429688 C 75.386719 196.429688 76.605469 196.039062 76.703125 196.332031 L 76.996094 197.40625 L 77.535156 197.457031 L 77.535156 197.746094 C 77.679688 199.308594 79.730469 199.015625 80.804688 198.136719 C 81.339844 197.648438 82.167969 197.359375 82.363281 198.382812 C 82.511719 199.113281 82.65625 200.378906 82.316406 201.066406 C 81.875 201.992188 80.507812 202.964844 80.507812 203.648438 C 80.460938 204.378906 80.949219 207.890625 80.21875 208.136719 C 79.484375 208.328125 77.632812 207.308594 77.09375 206.476562 C 76.558594 205.648438 75.339844 204.527344 74.65625 204.378906 C 74.019531 204.234375 71.925781 204.183594 71.238281 204.671875 C 70.605469 205.160156 69.242188 206.820312 69.144531 207.015625 C 69.046875 207.257812 67.726562 207.601562 67.433594 207.550781 C 67.140625 207.503906 66.410156 205.796875 66.070312 205.699219 C 65.726562 205.550781 63.386719 205.5 63.386719 205.5 L 58.066406 197.210938 L 56.410156 198.429688 L 61.921875 206.769531 C 61.921875 206.769531 61.679688 207.746094 61.96875 208.964844 C 62.261719 210.136719 64.214844 212.28125 64.214844 212.625 C 64.214844 213.011719 62.65625 215.550781 62.261719 215.988281 C 61.921875 216.425781 60.164062 217.9375 60.164062 217.9375 C 60.164062 217.9375 59.386719 220.28125 59.433594 220.765625 C 59.484375 221.253906 52.214844 224.765625 51.238281 224.914062 C 50.996094 224.914062 50.75 224.960938 50.605469 225.058594 L 35.382812 225.058594 C 34.503906 225.058594 33.675781 224.667969 33.039062 224.082031 L 32.992188 224.035156 C 32.457031 223.402344 32.113281 222.621094 32.113281 221.742188 L 32.113281 192.675781 L 67.484375 163.070312 L 102.855469 192.675781 " fill-opacity="1" fill-rule="nonzero"/></g><g clip-path="url(#88dc07735e)"><path fill="#0cc0df" d="M 99.921875 183.425781 C 99.902344 183.402344 99.886719 183.378906 99.734375 183.246094 C 99.585938 183.109375 99.292969 182.867188 98.707031 182.40625 L 98.660156 182.40625 L 81.574219 168.144531 C 81.527344 168.144531 81.527344 168.144531 81.476562 168.09375 C 81.28125 167.949219 81.183594 167.851562 81.039062 167.753906 C 80.84375 167.609375 80.648438 167.414062 80.40625 167.171875 C 80.210938 167.023438 80.066406 166.878906 79.917969 166.78125 C 79.773438 166.636719 79.582031 166.488281 79.335938 166.292969 C 78.847656 165.808594 78.265625 165.371094 77.679688 164.929688 L 77.242188 164.589844 L 77.242188 164.542969 L 70.867188 159.285156 C 70.867188 159.238281 70.820312 159.238281 70.820312 159.1875 C 69.113281 157.726562 67.265625 156.21875 65.464844 154.757812 C 64.394531 153.882812 63.371094 153.054688 62.25 152.082031 L 62.203125 152.03125 L 58.746094 149.160156 L 58.648438 149.0625 C 58.308594 148.796875 58.054688 148.578125 57.839844 148.386719 C 57.628906 148.199219 57.457031 148.042969 57.285156 147.894531 C 54.90625 145.828125 52.996094 144.164062 50.171875 144.164062 C 49.476562 144.164062 48.722656 144.265625 47.894531 144.488281 C 46.675781 144.828125 44.289062 146.921875 42.492188 148.527344 C 41.664062 149.257812 40.933594 149.890625 40.445312 150.230469 L 36.113281 153.832031 L 36.019531 153.929688 L 35.96875 153.929688 C 35.675781 154.222656 35.382812 154.464844 35.042969 154.757812 L 31.832031 157.386719 C 31.683594 157.484375 31.585938 157.582031 31.492188 157.726562 C 31.199219 158.019531 30.90625 158.3125 30.320312 158.457031 C 30.226562 158.507812 30.128906 158.507812 29.980469 158.507812 C 29.445312 158.507812 29.007812 158.066406 29.007812 157.53125 L 29.058594 155.925781 C 29.105469 152.519531 29.15625 145.753906 28.863281 144.878906 C 28.8125 144.730469 28.765625 144.683594 28.765625 144.632812 C 28.765625 144.632812 28.765625 144.632812 28.667969 144.585938 C 28.308594 144.316406 27.429688 144.25 26.417969 144.25 C 25.792969 144.25 25.117188 144.273438 24.480469 144.292969 C 23.898438 144.34375 23.363281 144.34375 22.972656 144.34375 L 17.082031 144.34375 C 15.816406 144.292969 14.988281 144.292969 14.746094 145.074219 C 14.503906 145.898438 14.601562 152.519531 14.648438 158.847656 C 14.746094 165.027344 14.796875 171.015625 14.40625 171.746094 C 14.210938 172.136719 13.722656 172.523438 13.285156 172.863281 C 13.140625 172.960938 12.945312 173.109375 12.847656 173.207031 C 11.875 174.128906 2.917969 181.675781 0.390625 183.71875 C 0 184.058594 0 184.351562 0.242188 184.789062 L 0.535156 185.179688 L 0.582031 185.226562 C 0.726562 185.375 0.777344 185.519531 0.875 185.617188 C 0.972656 185.714844 1.019531 185.8125 1.117188 185.910156 C 1.167969 185.910156 1.167969 185.957031 1.214844 186.003906 L 3.941406 189.269531 L 3.988281 189.316406 L 4.476562 189.851562 C 4.71875 189.996094 4.960938 190.046875 5.207031 189.996094 C 5.546875 189.949219 5.9375 189.753906 6.277344 189.414062 C 6.324219 189.414062 6.324219 189.363281 6.375 189.363281 L 49.546875 153.445312 C 49.886719 153.101562 50.425781 153.054688 50.8125 153.394531 L 63.664062 164.007812 L 63.710938 164.007812 C 65.269531 165.417969 67.363281 167.121094 69.457031 168.824219 C 72.132812 170.964844 74.808594 173.15625 76.511719 174.714844 C 76.804688 175.007812 77.195312 175.347656 77.582031 175.640625 L 78.019531 175.980469 L 78.070312 176.027344 L 94.082031 189.363281 L 94.132812 189.414062 C 95.105469 190.339844 95.886719 189.996094 96.613281 189.21875 C 97.003906 188.78125 97.441406 188.195312 97.878906 187.613281 C 98.316406 187.078125 98.707031 186.542969 99.195312 186.003906 L 100.214844 184.742188 L 100.214844 184.691406 L 100.265625 184.59375 L 100.265625 183.960938 C 100.070312 183.71875 99.972656 183.574219 99.921875 183.425781 Z M 85.515625 192.578125 L 85.515625 221.585938 C 85.515625 222.046875 85.417969 222.472656 85.25 222.863281 C 85.078125 223.253906 84.835938 223.605469 84.542969 223.921875 C 83.960938 224.507812 83.132812 224.894531 82.207031 224.894531 L 77.484375 224.894531 C 80.113281 220.953125 79.820312 212.582031 78.945312 209.515625 C 77.828125 205.765625 74.175781 198.613281 73.398438 197.640625 C 72.621094 196.617188 72.179688 196.324219 71.839844 196.128906 C 71.5 195.984375 69.550781 195.644531 69.40625 195.644531 C 69.210938 195.644531 68.628906 192.871094 68.675781 192.382812 C 68.773438 191.894531 69.308594 190.484375 69.308594 189.804688 C 69.308594 189.171875 69.210938 186.6875 68.871094 185.519531 C 68.53125 184.351562 67.117188 182.113281 67.117188 182.113281 C 67.117188 182.113281 64.976562 181.382812 64.585938 181.140625 C 64.199219 180.894531 63.46875 180.457031 62.785156 180.507812 C 62.105469 180.507812 61.035156 180.261719 58.308594 182.40625 C 55.582031 184.496094 54.316406 185.472656 54.316406 186.347656 C 54.316406 187.222656 54.316406 188.878906 54.902344 189.316406 C 55.4375 189.753906 55.484375 191.410156 55.925781 191.75 C 56.410156 192.140625 57.480469 193.015625 57.628906 193.160156 C 57.722656 193.308594 58.113281 196.324219 58.113281 196.324219 C 58.113281 196.324219 59.332031 195.9375 59.429688 196.226562 L 59.71875 197.296875 L 60.257812 197.347656 L 60.257812 197.640625 C 60.402344 199.195312 62.445312 198.90625 63.515625 198.027344 C 64.050781 197.542969 64.878906 197.25 65.074219 198.273438 C 65.222656 199.003906 65.367188 200.265625 65.027344 200.949219 C 64.585938 201.875 63.222656 202.847656 63.222656 203.527344 C 63.175781 204.257812 63.664062 207.761719 62.933594 208.007812 C 62.203125 208.199219 60.351562 207.179688 59.816406 206.351562 C 59.28125 205.523438 58.066406 204.40625 57.386719 204.257812 C 56.75 204.113281 54.660156 204.0625 53.976562 204.550781 C 53.34375 205.039062 51.980469 206.691406 51.882812 206.886719 C 51.789062 207.128906 50.472656 207.472656 50.179688 207.421875 C 49.886719 207.375 49.160156 205.671875 48.816406 205.574219 C 48.476562 205.425781 46.140625 205.378906 46.140625 205.378906 L 40.835938 197.101562 L 39.179688 198.320312 L 44.679688 206.644531 C 44.679688 206.644531 44.4375 207.617188 44.730469 208.835938 C 45.019531 210.003906 46.96875 212.144531 46.96875 212.484375 C 46.96875 212.871094 45.410156 215.40625 45.019531 215.84375 C 44.679688 216.28125 42.929688 217.789062 42.929688 217.789062 C 42.929688 217.789062 42.148438 220.125 42.199219 220.613281 C 42.246094 221.097656 34.996094 224.605469 34.019531 224.75 C 33.777344 224.75 33.535156 224.796875 33.390625 224.894531 L 18.203125 224.894531 C 17.328125 224.894531 16.5 224.507812 15.867188 223.921875 L 15.816406 223.875 C 15.28125 223.242188 14.941406 222.460938 14.941406 221.585938 L 14.941406 192.578125 L 50.230469 163.03125 L 85.515625 192.578125 " fill-opacity="1" fill-rule="nonzero"/></g><path fill="#0cc0df" d="M 99.402344 190.808594 L 297.355469 190.808594 C 302.089844 190.808594 305.925781 194.648438 305.925781 199.378906 L 305.925781 216.519531 C 305.925781 221.253906 302.089844 225.089844 297.355469 225.089844 L 99.402344 225.089844 C 94.671875 225.089844 90.832031 221.253906 90.832031 216.519531 L 90.832031 199.378906 C 90.832031 194.648438 94.671875 190.808594 99.402344 190.808594 Z M 99.402344 190.808594 " fill-opacity="1" fill-rule="nonzero"/><g fill="#000000" fill-opacity="1"><g transform="translate(95.864559, 216.57514)"><g><path d="M 10.203125 -2.96875 C 10.203125 -2.613281 10.234375 -2.328125 10.296875 -2.109375 C 10.367188 -1.898438 10.460938 -1.738281 10.578125 -1.625 C 10.703125 -1.507812 10.84375 -1.429688 11 -1.390625 C 11.15625 -1.359375 11.320312 -1.34375 11.5 -1.34375 L 12.546875 -1.34375 L 12.546875 0 L 3.875 0 L 3.875 -1.34375 L 4.921875 -1.34375 C 5.109375 -1.34375 5.28125 -1.359375 5.4375 -1.390625 C 5.59375 -1.429688 5.726562 -1.507812 5.84375 -1.625 C 5.957031 -1.738281 6.046875 -1.898438 6.109375 -2.109375 C 6.179688 -2.328125 6.21875 -2.613281 6.21875 -2.96875 L 6.21875 -16.421875 L 4.203125 -16.421875 C 3.828125 -16.421875 3.507812 -16.378906 3.25 -16.296875 C 3 -16.210938 2.789062 -16.09375 2.625 -15.9375 C 2.46875 -15.789062 2.347656 -15.609375 2.265625 -15.390625 C 2.191406 -15.171875 2.140625 -14.921875 2.109375 -14.640625 L 1.9375 -13.078125 L 0.25 -13.078125 L 0.375 -17.953125 L 16.046875 -17.953125 L 16.171875 -13.078125 L 14.5 -13.078125 L 14.3125 -14.640625 C 14.28125 -14.921875 14.222656 -15.171875 14.140625 -15.390625 C 14.066406 -15.609375 13.945312 -15.789062 13.78125 -15.9375 C 13.625 -16.09375 13.414062 -16.210938 13.15625 -16.296875 C 12.90625 -16.378906 12.59375 -16.421875 12.21875 -16.421875 L 10.203125 -16.421875 Z M 10.203125 -2.96875 "/></g></g></g><g fill="#000000" fill-opacity="1"><g transform="translate(112.307418, 216.57514)"><g><path d="M 10.546875 0 L 10.546875 -8.28125 C 10.546875 -8.820312 10.507812 -9.300781 10.4375 -9.71875 C 10.363281 -10.144531 10.242188 -10.5 10.078125 -10.78125 C 9.921875 -11.070312 9.710938 -11.289062 9.453125 -11.4375 C 9.203125 -11.59375 8.894531 -11.671875 8.53125 -11.671875 C 8.101562 -11.671875 7.75 -11.5625 7.46875 -11.34375 C 7.195312 -11.132812 6.976562 -10.851562 6.8125 -10.5 C 6.644531 -10.144531 6.523438 -9.726562 6.453125 -9.25 C 6.378906 -8.78125 6.34375 -8.289062 6.34375 -7.78125 L 6.34375 -2.96875 C 6.34375 -2.613281 6.382812 -2.332031 6.46875 -2.125 C 6.550781 -1.914062 6.671875 -1.75 6.828125 -1.625 C 6.984375 -1.507812 7.171875 -1.429688 7.390625 -1.390625 C 7.617188 -1.359375 7.875 -1.34375 8.15625 -1.34375 L 8.234375 -1.34375 L 8.234375 0 L 0.5 0 L 0.5 -1.34375 L 0.546875 -1.34375 C 0.835938 -1.34375 1.097656 -1.359375 1.328125 -1.390625 C 1.566406 -1.429688 1.773438 -1.507812 1.953125 -1.625 C 2.128906 -1.75 2.265625 -1.925781 2.359375 -2.15625 C 2.460938 -2.382812 2.515625 -2.691406 2.515625 -3.078125 L 2.515625 -16.25 C 2.515625 -16.582031 2.453125 -16.847656 2.328125 -17.046875 C 2.210938 -17.253906 2.066406 -17.410156 1.890625 -17.515625 C 1.710938 -17.628906 1.519531 -17.703125 1.3125 -17.734375 C 1.101562 -17.765625 0.90625 -17.78125 0.71875 -17.78125 L 0.4375 -17.78125 L 0.4375 -19.109375 L 6.34375 -19.109375 L 6.34375 -14.96875 C 6.34375 -14.644531 6.332031 -14.296875 6.3125 -13.921875 C 6.289062 -13.546875 6.265625 -13.195312 6.234375 -12.875 C 6.203125 -12.5 6.171875 -12.128906 6.140625 -11.765625 L 6.359375 -11.765625 C 6.617188 -12.242188 6.890625 -12.617188 7.171875 -12.890625 C 7.453125 -13.160156 7.75 -13.363281 8.0625 -13.5 C 8.382812 -13.632812 8.722656 -13.71875 9.078125 -13.75 C 9.441406 -13.789062 9.816406 -13.8125 10.203125 -13.8125 C 10.847656 -13.8125 11.425781 -13.710938 11.9375 -13.515625 C 12.457031 -13.328125 12.894531 -13.035156 13.25 -12.640625 C 13.613281 -12.253906 13.890625 -11.753906 14.078125 -11.140625 C 14.265625 -10.535156 14.359375 -9.804688 14.359375 -8.953125 L 14.359375 -3.125 C 14.359375 -2.726562 14.390625 -2.410156 14.453125 -2.171875 C 14.523438 -1.941406 14.628906 -1.765625 14.765625 -1.640625 C 14.910156 -1.523438 15.085938 -1.445312 15.296875 -1.40625 C 15.515625 -1.363281 15.765625 -1.34375 16.046875 -1.34375 L 16.125 -1.34375 L 16.125 0 Z M 10.546875 0 "/></g></g></g><g fill="#000000" fill-opacity="1"><g transform="translate(129.106383, 216.57514)"><g><path d="M 7.46875 -12.171875 C 6.757812 -12.171875 6.195312 -11.820312 5.78125 -11.125 C 5.375 -10.425781 5.148438 -9.40625 5.109375 -8.0625 L 9.453125 -8.0625 C 9.453125 -8.707031 9.414062 -9.28125 9.34375 -9.78125 C 9.269531 -10.289062 9.15625 -10.722656 9 -11.078125 C 8.84375 -11.429688 8.640625 -11.703125 8.390625 -11.890625 C 8.140625 -12.078125 7.832031 -12.171875 7.46875 -12.171875 Z M 7.703125 0.25 C 6.640625 0.25 5.695312 0.09375 4.875 -0.21875 C 4.0625 -0.53125 3.378906 -0.976562 2.828125 -1.5625 C 2.285156 -2.15625 1.875 -2.878906 1.59375 -3.734375 C 1.3125 -4.597656 1.171875 -5.578125 1.171875 -6.671875 C 1.171875 -7.847656 1.3125 -8.878906 1.59375 -9.765625 C 1.875 -10.660156 2.28125 -11.40625 2.8125 -12 C 3.34375 -12.601562 3.992188 -13.054688 4.765625 -13.359375 C 5.546875 -13.660156 6.429688 -13.8125 7.421875 -13.8125 C 8.328125 -13.8125 9.144531 -13.679688 9.875 -13.421875 C 10.601562 -13.160156 11.21875 -12.773438 11.71875 -12.265625 C 12.226562 -11.765625 12.617188 -11.132812 12.890625 -10.375 C 13.160156 -9.625 13.296875 -8.75 13.296875 -7.75 L 13.296875 -6.46875 L 5.0625 -6.46875 C 5.082031 -5.625 5.171875 -4.894531 5.328125 -4.28125 C 5.492188 -3.675781 5.71875 -3.175781 6 -2.78125 C 6.28125 -2.394531 6.625 -2.109375 7.03125 -1.921875 C 7.4375 -1.734375 7.898438 -1.640625 8.421875 -1.640625 C 8.859375 -1.640625 9.257812 -1.6875 9.625 -1.78125 C 10 -1.882812 10.332031 -2.03125 10.625 -2.21875 C 10.925781 -2.40625 11.1875 -2.625 11.40625 -2.875 C 11.632812 -3.125 11.820312 -3.390625 11.96875 -3.671875 C 12.425781 -3.421875 12.65625 -3.007812 12.65625 -2.4375 C 12.65625 -2.082031 12.554688 -1.742188 12.359375 -1.421875 C 12.160156 -1.097656 11.851562 -0.8125 11.4375 -0.5625 C 11.03125 -0.320312 10.519531 -0.128906 9.90625 0.015625 C 9.289062 0.171875 8.554688 0.25 7.703125 0.25 Z M 7.703125 0.25 "/></g></g></g><g fill="#000000" fill-opacity="1"><g transform="translate(143.486286, 216.57514)"><g/></g></g><g fill="#000000" fill-opacity="1"><g transform="translate(150.044139, 216.57514)"><g><path d="M 6.640625 0.25 C 5.515625 0.25 4.570312 0.144531 3.8125 -0.0625 C 3.0625 -0.28125 2.457031 -0.554688 2 -0.890625 C 1.550781 -1.234375 1.226562 -1.613281 1.03125 -2.03125 C 0.84375 -2.445312 0.75 -2.859375 0.75 -3.265625 C 0.75 -3.703125 0.828125 -4.066406 0.984375 -4.359375 C 1.148438 -4.648438 1.363281 -4.890625 1.625 -5.078125 C 1.894531 -5.273438 2.195312 -5.410156 2.53125 -5.484375 C 2.875 -5.566406 3.226562 -5.609375 3.59375 -5.609375 C 3.59375 -4.890625 3.675781 -4.257812 3.84375 -3.71875 C 4.019531 -3.175781 4.257812 -2.722656 4.5625 -2.359375 C 4.875 -1.992188 5.238281 -1.71875 5.65625 -1.53125 C 6.082031 -1.34375 6.539062 -1.25 7.03125 -1.25 C 7.53125 -1.25 7.972656 -1.316406 8.359375 -1.453125 C 8.742188 -1.597656 9.066406 -1.789062 9.328125 -2.03125 C 9.597656 -2.28125 9.800781 -2.570312 9.9375 -2.90625 C 10.082031 -3.238281 10.15625 -3.597656 10.15625 -3.984375 C 10.15625 -4.410156 10.066406 -4.785156 9.890625 -5.109375 C 9.722656 -5.441406 9.460938 -5.75 9.109375 -6.03125 C 8.765625 -6.320312 8.328125 -6.59375 7.796875 -6.84375 C 7.273438 -7.101562 6.660156 -7.378906 5.953125 -7.671875 C 5.078125 -8.035156 4.335938 -8.40625 3.734375 -8.78125 C 3.140625 -9.164062 2.65625 -9.578125 2.28125 -10.015625 C 1.914062 -10.460938 1.648438 -10.941406 1.484375 -11.453125 C 1.328125 -11.972656 1.25 -12.539062 1.25 -13.15625 C 1.25 -13.925781 1.40625 -14.617188 1.71875 -15.234375 C 2.03125 -15.859375 2.457031 -16.390625 3 -16.828125 C 3.550781 -17.273438 4.203125 -17.617188 4.953125 -17.859375 C 5.710938 -18.097656 6.535156 -18.21875 7.421875 -18.21875 C 8.347656 -18.21875 9.144531 -18.140625 9.8125 -17.984375 C 10.488281 -17.835938 11.046875 -17.628906 11.484375 -17.359375 C 11.921875 -17.097656 12.242188 -16.789062 12.453125 -16.4375 C 12.671875 -16.082031 12.78125 -15.703125 12.78125 -15.296875 C 12.78125 -14.992188 12.710938 -14.71875 12.578125 -14.46875 C 12.453125 -14.21875 12.257812 -14 12 -13.8125 C 11.75 -13.625 11.425781 -13.472656 11.03125 -13.359375 C 10.644531 -13.253906 10.191406 -13.203125 9.671875 -13.203125 C 9.671875 -13.554688 9.625 -13.9375 9.53125 -14.34375 C 9.4375 -14.75 9.285156 -15.125 9.078125 -15.46875 C 8.867188 -15.820312 8.59375 -16.113281 8.25 -16.34375 C 7.90625 -16.570312 7.492188 -16.6875 7.015625 -16.6875 C 6.679688 -16.6875 6.359375 -16.632812 6.046875 -16.53125 C 5.742188 -16.4375 5.476562 -16.289062 5.25 -16.09375 C 5.03125 -15.894531 4.851562 -15.648438 4.71875 -15.359375 C 4.59375 -15.066406 4.53125 -14.734375 4.53125 -14.359375 C 4.53125 -14.003906 4.585938 -13.671875 4.703125 -13.359375 C 4.816406 -13.046875 5.023438 -12.738281 5.328125 -12.4375 C 5.640625 -12.144531 6.0625 -11.847656 6.59375 -11.546875 C 7.132812 -11.253906 7.832031 -10.9375 8.6875 -10.59375 C 9.539062 -10.238281 10.269531 -9.875 10.875 -9.5 C 11.488281 -9.132812 11.988281 -8.738281 12.375 -8.3125 C 12.757812 -7.894531 13.039062 -7.429688 13.21875 -6.921875 C 13.394531 -6.421875 13.484375 -5.863281 13.484375 -5.25 C 13.484375 -4.445312 13.320312 -3.707031 13 -3.03125 C 12.6875 -2.351562 12.226562 -1.769531 11.625 -1.28125 C 11.03125 -0.800781 10.3125 -0.425781 9.46875 -0.15625 C 8.632812 0.113281 7.691406 0.25 6.640625 0.25 Z M 6.640625 0.25 "/></g></g></g><g fill="#000000" fill-opacity="1"><g transform="translate(164.804704, 216.57514)"><g><path d="M 7.890625 -1.78125 C 8.222656 -1.78125 8.535156 -1.800781 8.828125 -1.84375 C 9.128906 -1.894531 9.410156 -1.953125 9.671875 -2.015625 L 9.671875 -0.375 C 9.546875 -0.3125 9.367188 -0.242188 9.140625 -0.171875 C 8.921875 -0.0976562 8.660156 -0.03125 8.359375 0.03125 C 8.054688 0.09375 7.71875 0.144531 7.34375 0.1875 C 6.96875 0.226562 6.554688 0.25 6.109375 0.25 C 5.546875 0.25 5.035156 0.179688 4.578125 0.046875 C 4.117188 -0.0859375 3.726562 -0.3125 3.40625 -0.625 C 3.09375 -0.945312 2.847656 -1.359375 2.671875 -1.859375 C 2.503906 -2.359375 2.421875 -2.976562 2.421875 -3.71875 L 2.421875 -11.765625 L 0.53125 -11.765625 L 0.53125 -13.0625 C 1.070312 -13.0625 1.550781 -13.164062 1.96875 -13.375 C 2.394531 -13.59375 2.738281 -13.835938 3 -14.109375 C 3.507812 -14.648438 3.894531 -15.484375 4.15625 -16.609375 L 6.234375 -16.609375 L 6.234375 -13.484375 L 9.453125 -13.484375 L 9.453125 -11.765625 L 6.234375 -11.765625 L 6.234375 -3.984375 C 6.234375 -3.222656 6.363281 -2.664062 6.625 -2.3125 C 6.882812 -1.957031 7.304688 -1.78125 7.890625 -1.78125 Z M 7.890625 -1.78125 "/></g></g></g><g fill="#000000" fill-opacity="1"><g transform="translate(175.009571, 216.57514)"><g><path d="M 11.140625 0 L 10.59375 -1.78125 L 10.46875 -1.78125 C 10.207031 -1.34375 9.929688 -0.988281 9.640625 -0.71875 C 9.347656 -0.457031 9.03125 -0.253906 8.6875 -0.109375 C 8.351562 0.0234375 8 0.117188 7.625 0.171875 C 7.257812 0.222656 6.878906 0.25 6.484375 0.25 C 5.171875 0.25 4.164062 -0.15625 3.46875 -0.96875 C 2.769531 -1.78125 2.421875 -3.035156 2.421875 -4.734375 L 2.421875 -10.359375 C 2.421875 -10.734375 2.382812 -11.035156 2.3125 -11.265625 C 2.25 -11.492188 2.148438 -11.671875 2.015625 -11.796875 C 1.878906 -11.929688 1.703125 -12.019531 1.484375 -12.0625 C 1.265625 -12.113281 1.003906 -12.140625 0.703125 -12.140625 L 0.65625 -12.140625 L 0.65625 -13.484375 L 6.234375 -13.484375 L 6.234375 -5.421875 C 6.234375 -4.890625 6.265625 -4.40625 6.328125 -3.96875 C 6.390625 -3.53125 6.492188 -3.15625 6.640625 -2.84375 C 6.785156 -2.539062 6.984375 -2.304688 7.234375 -2.140625 C 7.484375 -1.972656 7.789062 -1.890625 8.15625 -1.890625 C 8.5625 -1.890625 8.90625 -1.976562 9.1875 -2.15625 C 9.476562 -2.332031 9.71875 -2.585938 9.90625 -2.921875 C 10.09375 -3.253906 10.226562 -3.65625 10.3125 -4.125 C 10.394531 -4.59375 10.4375 -5.125 10.4375 -5.71875 L 10.4375 -10.546875 C 10.4375 -10.910156 10.382812 -11.195312 10.28125 -11.40625 C 10.1875 -11.625 10.054688 -11.785156 9.890625 -11.890625 C 9.734375 -12.003906 9.539062 -12.070312 9.3125 -12.09375 C 9.09375 -12.125 8.863281 -12.140625 8.625 -12.140625 L 8.546875 -12.140625 L 8.546875 -13.484375 L 14.265625 -13.484375 L 14.265625 -2.921875 C 14.265625 -2.554688 14.304688 -2.269531 14.390625 -2.0625 C 14.472656 -1.851562 14.585938 -1.691406 14.734375 -1.578125 C 14.890625 -1.472656 15.066406 -1.40625 15.265625 -1.375 C 15.472656 -1.351562 15.695312 -1.34375 15.9375 -1.34375 L 16.15625 -1.34375 L 16.15625 0 Z M 11.140625 0 "/></g></g></g><g fill="#000000" fill-opacity="1"><g transform="translate(191.808534, 216.57514)"><g><path d="M 13.78125 -3.09375 C 13.78125 -2.707031 13.835938 -2.398438 13.953125 -2.171875 C 14.066406 -1.941406 14.21875 -1.765625 14.40625 -1.640625 C 14.601562 -1.523438 14.828125 -1.445312 15.078125 -1.40625 C 15.328125 -1.363281 15.59375 -1.34375 15.875 -1.34375 L 15.96875 -1.34375 L 15.96875 0 L 11.09375 0 L 10.390625 -1.96875 L 10.15625 -1.96875 C 9.96875 -1.625 9.753906 -1.316406 9.515625 -1.046875 C 9.273438 -0.773438 8.992188 -0.539062 8.671875 -0.34375 C 8.359375 -0.15625 8.003906 -0.0078125 7.609375 0.09375 C 7.222656 0.195312 6.785156 0.25 6.296875 0.25 C 5.472656 0.25 4.738281 0.113281 4.09375 -0.15625 C 3.457031 -0.4375 2.921875 -0.859375 2.484375 -1.421875 C 2.046875 -1.992188 1.710938 -2.71875 1.484375 -3.59375 C 1.265625 -4.46875 1.15625 -5.507812 1.15625 -6.71875 C 1.15625 -7.925781 1.265625 -8.972656 1.484375 -9.859375 C 1.710938 -10.753906 2.039062 -11.488281 2.46875 -12.0625 C 2.90625 -12.644531 3.441406 -13.078125 4.078125 -13.359375 C 4.710938 -13.640625 5.429688 -13.78125 6.234375 -13.78125 C 6.710938 -13.78125 7.140625 -13.726562 7.515625 -13.625 C 7.898438 -13.519531 8.242188 -13.378906 8.546875 -13.203125 C 8.859375 -13.035156 9.132812 -12.828125 9.375 -12.578125 C 9.613281 -12.328125 9.816406 -12.054688 9.984375 -11.765625 L 10.15625 -11.765625 C 10.125 -12.234375 10.09375 -12.671875 10.0625 -13.078125 C 10.050781 -13.253906 10.039062 -13.429688 10.03125 -13.609375 C 10.019531 -13.785156 10.003906 -13.953125 9.984375 -14.109375 C 9.972656 -14.273438 9.96875 -14.421875 9.96875 -14.546875 C 9.96875 -14.671875 9.96875 -14.769531 9.96875 -14.84375 L 9.96875 -16.21875 C 9.96875 -16.5625 9.910156 -16.835938 9.796875 -17.046875 C 9.679688 -17.265625 9.53125 -17.425781 9.34375 -17.53125 C 9.164062 -17.632812 8.953125 -17.703125 8.703125 -17.734375 C 8.460938 -17.765625 8.203125 -17.78125 7.921875 -17.78125 L 7.71875 -17.78125 L 7.71875 -19.109375 L 13.78125 -19.109375 Z M 7.375 -1.640625 C 7.875 -1.640625 8.285156 -1.742188 8.609375 -1.953125 C 8.941406 -2.160156 9.207031 -2.472656 9.40625 -2.890625 C 9.613281 -3.316406 9.757812 -3.851562 9.84375 -4.5 C 9.925781 -5.144531 9.96875 -5.898438 9.96875 -6.765625 C 9.96875 -7.597656 9.925781 -8.332031 9.84375 -8.96875 C 9.757812 -9.613281 9.613281 -10.15625 9.40625 -10.59375 C 9.207031 -11.03125 8.941406 -11.359375 8.609375 -11.578125 C 8.285156 -11.804688 7.875 -11.921875 7.375 -11.921875 C 6.957031 -11.921875 6.597656 -11.804688 6.296875 -11.578125 C 5.992188 -11.359375 5.75 -11.023438 5.5625 -10.578125 C 5.382812 -10.140625 5.25 -9.597656 5.15625 -8.953125 C 5.070312 -8.316406 5.03125 -7.582031 5.03125 -6.75 C 5.03125 -5.03125 5.207031 -3.75 5.5625 -2.90625 C 5.925781 -2.0625 6.53125 -1.640625 7.375 -1.640625 Z M 7.375 -1.640625 "/></g></g></g><g fill="#000000" fill-opacity="1"><g transform="translate(208.153161, 216.57514)"><g><path d="M 14.5625 -13.484375 L 14.5625 -12.140625 C 14.3125 -12.140625 14.085938 -12.109375 13.890625 -12.046875 C 13.703125 -11.992188 13.53125 -11.894531 13.375 -11.75 C 13.21875 -11.613281 13.070312 -11.425781 12.9375 -11.1875 C 12.8125 -10.957031 12.679688 -10.664062 12.546875 -10.3125 C 12.253906 -9.476562 11.945312 -8.628906 11.625 -7.765625 C 11.3125 -6.898438 10.992188 -6.03125 10.671875 -5.15625 C 10.347656 -4.28125 10.023438 -3.410156 9.703125 -2.546875 C 9.378906 -1.679688 9.066406 -0.832031 8.765625 0 C 8.460938 0.8125 8.179688 1.523438 7.921875 2.140625 C 7.660156 2.753906 7.382812 3.285156 7.09375 3.734375 C 6.800781 4.179688 6.476562 4.550781 6.125 4.84375 C 5.769531 5.144531 5.359375 5.382812 4.890625 5.5625 C 4.429688 5.738281 3.890625 5.863281 3.265625 5.9375 C 2.648438 6.007812 1.929688 6.046875 1.109375 6.046875 L 0.671875 6.046875 L 0.671875 4.578125 C 1.546875 4.578125 2.289062 4.46875 2.90625 4.25 C 3.519531 4.039062 4.039062 3.738281 4.46875 3.34375 C 4.894531 2.957031 5.242188 2.488281 5.515625 1.9375 C 5.796875 1.394531 6.035156 0.789062 6.234375 0.125 L 1.703125 -10.9375 C 1.609375 -11.175781 1.5 -11.363281 1.375 -11.5 C 1.25 -11.644531 1.117188 -11.753906 0.984375 -11.828125 C 0.847656 -11.898438 0.695312 -11.945312 0.53125 -11.96875 C 0.363281 -11.988281 0.1875 -12 0 -12 L 0 -13.484375 L 7.171875 -13.484375 L 7.171875 -12.140625 C 6.679688 -12.140625 6.296875 -12.078125 6.015625 -11.953125 C 5.734375 -11.828125 5.59375 -11.582031 5.59375 -11.21875 C 5.59375 -11.070312 5.617188 -10.898438 5.671875 -10.703125 C 5.734375 -10.515625 5.785156 -10.363281 5.828125 -10.25 C 5.984375 -9.894531 6.140625 -9.507812 6.296875 -9.09375 C 6.453125 -8.675781 6.601562 -8.257812 6.75 -7.84375 C 6.90625 -7.4375 7.050781 -7.039062 7.1875 -6.65625 C 7.332031 -6.269531 7.457031 -5.929688 7.5625 -5.640625 C 7.6875 -5.316406 7.789062 -5.023438 7.875 -4.765625 C 7.957031 -4.515625 8.023438 -4.285156 8.078125 -4.078125 C 8.128906 -3.867188 8.171875 -3.675781 8.203125 -3.5 C 8.234375 -3.320312 8.257812 -3.144531 8.28125 -2.96875 C 8.289062 -3.144531 8.320312 -3.335938 8.375 -3.546875 C 8.425781 -3.753906 8.476562 -3.953125 8.53125 -4.140625 C 8.59375 -4.335938 8.648438 -4.507812 8.703125 -4.65625 C 8.765625 -4.8125 8.804688 -4.921875 8.828125 -4.984375 L 10.484375 -9.90625 C 10.523438 -9.988281 10.554688 -10.082031 10.578125 -10.1875 C 10.609375 -10.300781 10.632812 -10.414062 10.65625 -10.53125 C 10.6875 -10.65625 10.707031 -10.769531 10.71875 -10.875 C 10.726562 -10.976562 10.734375 -11.066406 10.734375 -11.140625 C 10.734375 -11.523438 10.570312 -11.785156 10.25 -11.921875 C 9.9375 -12.066406 9.488281 -12.140625 8.90625 -12.140625 L 8.90625 -13.484375 Z M 14.5625 -13.484375 "/></g></g></g><g fill="#000000" fill-opacity="1"><g transform="translate(222.741813, 216.57514)"><g/></g></g><g fill="#000000" fill-opacity="1"><g transform="translate(229.299666, 216.57514)"><g><path d="M 15.1875 -17.78125 L 18.671875 -8.1875 C 18.816406 -7.789062 18.953125 -7.390625 19.078125 -6.984375 C 19.203125 -6.578125 19.316406 -6.1875 19.421875 -5.8125 C 19.535156 -5.445312 19.632812 -5.109375 19.71875 -4.796875 C 19.800781 -4.492188 19.863281 -4.226562 19.90625 -4 C 19.96875 -4.300781 20.035156 -4.632812 20.109375 -5 C 20.179688 -5.375 20.257812 -5.765625 20.34375 -6.171875 C 20.425781 -6.578125 20.515625 -6.992188 20.609375 -7.421875 C 20.710938 -7.847656 20.8125 -8.257812 20.90625 -8.65625 L 22.234375 -14.09375 C 22.253906 -14.1875 22.28125 -14.296875 22.3125 -14.421875 C 22.34375 -14.554688 22.367188 -14.6875 22.390625 -14.8125 C 22.410156 -14.945312 22.425781 -15.066406 22.4375 -15.171875 C 22.457031 -15.285156 22.46875 -15.375 22.46875 -15.4375 C 22.46875 -15.875 22.335938 -16.179688 22.078125 -16.359375 C 21.816406 -16.535156 21.410156 -16.625 20.859375 -16.625 L 20.28125 -16.625 L 20.28125 -17.953125 L 26.84375 -17.953125 L 26.84375 -16.625 L 26.359375 -16.625 C 26.109375 -16.625 25.890625 -16.597656 25.703125 -16.546875 C 25.515625 -16.503906 25.347656 -16.410156 25.203125 -16.265625 C 25.054688 -16.117188 24.921875 -15.921875 24.796875 -15.671875 C 24.679688 -15.421875 24.566406 -15.085938 24.453125 -14.671875 L 20.546875 0 L 17.6875 0 L 13.46875 -11.796875 L 9.84375 0 L 6.71875 0 L 2.109375 -15.296875 C 2.035156 -15.554688 1.945312 -15.769531 1.84375 -15.9375 C 1.738281 -16.113281 1.613281 -16.253906 1.46875 -16.359375 C 1.320312 -16.460938 1.15625 -16.53125 0.96875 -16.5625 C 0.789062 -16.601562 0.578125 -16.625 0.328125 -16.625 L 0 -16.625 L 0 -17.953125 L 8.40625 -17.953125 L 8.40625 -16.625 L 7.828125 -16.625 C 7.316406 -16.625 6.9375 -16.523438 6.6875 -16.328125 C 6.4375 -16.140625 6.3125 -15.835938 6.3125 -15.421875 C 6.3125 -15.273438 6.335938 -15.066406 6.390625 -14.796875 C 6.441406 -14.535156 6.503906 -14.289062 6.578125 -14.0625 L 8.25 -8.25 C 8.34375 -7.9375 8.441406 -7.59375 8.546875 -7.21875 C 8.648438 -6.84375 8.742188 -6.460938 8.828125 -6.078125 C 8.921875 -5.703125 9.003906 -5.335938 9.078125 -4.984375 C 9.148438 -4.628906 9.203125 -4.316406 9.234375 -4.046875 C 9.347656 -4.585938 9.472656 -5.09375 9.609375 -5.5625 C 9.742188 -6.039062 9.882812 -6.523438 10.03125 -7.015625 L 13.359375 -17.78125 Z M 15.1875 -17.78125 "/></g></g></g><g fill="#000000" fill-opacity="1"><g transform="translate(256.155547, 216.57514)"><g><path d="M 5.03125 -3.75 C 5.03125 -3.03125 5.144531 -2.488281 5.375 -2.125 C 5.601562 -1.757812 5.96875 -1.578125 6.46875 -1.578125 C 6.820312 -1.578125 7.144531 -1.648438 7.4375 -1.796875 C 7.726562 -1.953125 7.976562 -2.171875 8.1875 -2.453125 C 8.394531 -2.734375 8.550781 -3.070312 8.65625 -3.46875 C 8.769531 -3.863281 8.828125 -4.304688 8.828125 -4.796875 L 8.828125 -6.6875 L 7.703125 -6.625 C 7.203125 -6.59375 6.78125 -6.507812 6.4375 -6.375 C 6.09375 -6.238281 5.816406 -6.050781 5.609375 -5.8125 C 5.410156 -5.582031 5.265625 -5.296875 5.171875 -4.953125 C 5.078125 -4.609375 5.03125 -4.207031 5.03125 -3.75 Z M 7.265625 -12.265625 C 6.953125 -12.265625 6.6875 -12.195312 6.46875 -12.0625 C 6.25 -11.925781 6.070312 -11.738281 5.9375 -11.5 C 5.8125 -11.257812 5.722656 -10.972656 5.671875 -10.640625 C 5.617188 -10.304688 5.59375 -9.945312 5.59375 -9.5625 C 4.457031 -9.5625 3.601562 -9.6875 3.03125 -9.9375 C 2.46875 -10.1875 2.1875 -10.617188 2.1875 -11.234375 C 2.1875 -11.691406 2.320312 -12.082031 2.59375 -12.40625 C 2.875 -12.738281 3.25 -13.007812 3.71875 -13.21875 C 4.1875 -13.425781 4.734375 -13.578125 5.359375 -13.671875 C 5.984375 -13.765625 6.65625 -13.8125 7.375 -13.8125 C 8.257812 -13.8125 9.03125 -13.734375 9.6875 -13.578125 C 10.34375 -13.429688 10.890625 -13.1875 11.328125 -12.84375 C 11.765625 -12.507812 12.09375 -12.070312 12.3125 -11.53125 C 12.539062 -10.988281 12.65625 -10.320312 12.65625 -9.53125 L 12.65625 -3.125 C 12.65625 -2.78125 12.679688 -2.492188 12.734375 -2.265625 C 12.785156 -2.035156 12.867188 -1.851562 12.984375 -1.71875 C 13.097656 -1.582031 13.253906 -1.484375 13.453125 -1.421875 C 13.648438 -1.367188 13.882812 -1.34375 14.15625 -1.34375 L 14.265625 -1.34375 L 14.265625 0 L 9.578125 0 L 9.046875 -1.734375 L 8.828125 -1.734375 C 8.554688 -1.398438 8.296875 -1.109375 8.046875 -0.859375 C 7.796875 -0.609375 7.53125 -0.398438 7.25 -0.234375 C 6.976562 -0.0664062 6.664062 0.0507812 6.3125 0.125 C 5.96875 0.207031 5.554688 0.25 5.078125 0.25 C 4.523438 0.25 4.007812 0.164062 3.53125 0 C 3.050781 -0.164062 2.632812 -0.414062 2.28125 -0.75 C 1.925781 -1.09375 1.644531 -1.519531 1.4375 -2.03125 C 1.226562 -2.539062 1.125 -3.144531 1.125 -3.84375 C 1.125 -5.207031 1.59375 -6.21875 2.53125 -6.875 C 3.46875 -7.53125 4.878906 -7.890625 6.765625 -7.953125 L 8.828125 -8.015625 L 8.828125 -9.40625 C 8.828125 -9.820312 8.8125 -10.207031 8.78125 -10.5625 C 8.75 -10.914062 8.679688 -11.21875 8.578125 -11.46875 C 8.472656 -11.726562 8.3125 -11.925781 8.09375 -12.0625 C 7.882812 -12.195312 7.609375 -12.265625 7.265625 -12.265625 Z M 7.265625 -12.265625 "/></g></g></g><g fill="#000000" fill-opacity="1"><g transform="translate(271.247658, 216.57514)"><g><path d="M 15.25 -12.140625 L 14.734375 -12.140625 C 14.566406 -12.140625 14.414062 -12.117188 14.28125 -12.078125 C 14.144531 -12.046875 14.015625 -11.960938 13.890625 -11.828125 C 13.765625 -11.703125 13.640625 -11.519531 13.515625 -11.28125 C 13.390625 -11.039062 13.253906 -10.71875 13.109375 -10.3125 L 9.453125 0 L 6.140625 0 L 2.015625 -10.9375 C 1.921875 -11.175781 1.8125 -11.375 1.6875 -11.53125 C 1.570312 -11.6875 1.4375 -11.804688 1.28125 -11.890625 C 1.125 -11.984375 0.941406 -12.046875 0.734375 -12.078125 C 0.523438 -12.117188 0.28125 -12.140625 0 -12.140625 L 0 -13.484375 L 7.796875 -13.484375 L 7.796875 -12.140625 L 6.75 -12.140625 C 6.488281 -12.140625 6.28125 -12.070312 6.125 -11.9375 C 5.976562 -11.8125 5.90625 -11.613281 5.90625 -11.34375 C 5.90625 -11.144531 5.929688 -10.945312 5.984375 -10.75 C 6.035156 -10.550781 6.085938 -10.382812 6.140625 -10.25 L 7.828125 -5.484375 C 8.023438 -4.953125 8.203125 -4.414062 8.359375 -3.875 C 8.515625 -3.332031 8.628906 -2.847656 8.703125 -2.421875 C 8.742188 -2.617188 8.800781 -2.847656 8.875 -3.109375 C 8.945312 -3.367188 9.019531 -3.625 9.09375 -3.875 C 9.175781 -4.125 9.242188 -4.347656 9.296875 -4.546875 C 9.359375 -4.753906 9.40625 -4.898438 9.4375 -4.984375 L 11.140625 -10.03125 C 11.222656 -10.257812 11.289062 -10.488281 11.34375 -10.71875 C 11.394531 -10.957031 11.421875 -11.191406 11.421875 -11.421875 C 11.421875 -11.703125 11.328125 -11.890625 11.140625 -11.984375 C 10.960938 -12.085938 10.726562 -12.140625 10.4375 -12.140625 L 9.71875 -12.140625 L 9.71875 -13.484375 L 15.25 -13.484375 Z M 15.25 -12.140625 "/></g></g></g><g fill="#000000" fill-opacity="1"><g transform="translate(286.511683, 216.57514)"><g><path d="M 7.46875 -12.171875 C 6.757812 -12.171875 6.195312 -11.820312 5.78125 -11.125 C 5.375 -10.425781 5.148438 -9.40625 5.109375 -8.0625 L 9.453125 -8.0625 C 9.453125 -8.707031 9.414062 -9.28125 9.34375 -9.78125 C 9.269531 -10.289062 9.15625 -10.722656 9 -11.078125 C 8.84375 -11.429688 8.640625 -11.703125 8.390625 -11.890625 C 8.140625 -12.078125 7.832031 -12.171875 7.46875 -12.171875 Z M 7.703125 0.25 C 6.640625 0.25 5.695312 0.09375 4.875 -0.21875 C 4.0625 -0.53125 3.378906 -0.976562 2.828125 -1.5625 C 2.285156 -2.15625 1.875 -2.878906 1.59375 -3.734375 C 1.3125 -4.597656 1.171875 -5.578125 1.171875 -6.671875 C 1.171875 -7.847656 1.3125 -8.878906 1.59375 -9.765625 C 1.875 -10.660156 2.28125 -11.40625 2.8125 -12 C 3.34375 -12.601562 3.992188 -13.054688 4.765625 -13.359375 C 5.546875 -13.660156 6.429688 -13.8125 7.421875 -13.8125 C 8.328125 -13.8125 9.144531 -13.679688 9.875 -13.421875 C 10.601562 -13.160156 11.21875 -12.773438 11.71875 -12.265625 C 12.226562 -11.765625 12.617188 -11.132812 12.890625 -10.375 C 13.160156 -9.625 13.296875 -8.75 13.296875 -7.75 L 13.296875 -6.46875 L 5.0625 -6.46875 C 5.082031 -5.625 5.171875 -4.894531 5.328125 -4.28125 C 5.492188 -3.675781 5.71875 -3.175781 6 -2.78125 C 6.28125 -2.394531 6.625 -2.109375 7.03125 -1.921875 C 7.4375 -1.734375 7.898438 -1.640625 8.421875 -1.640625 C 8.859375 -1.640625 9.257812 -1.6875 9.625 -1.78125 C 10 -1.882812 10.332031 -2.03125 10.625 -2.21875 C 10.925781 -2.40625 11.1875 -2.625 11.40625 -2.875 C 11.632812 -3.125 11.820312 -3.390625 11.96875 -3.671875 C 12.425781 -3.421875 12.65625 -3.007812 12.65625 -2.4375 C 12.65625 -2.082031 12.554688 -1.742188 12.359375 -1.421875 C 12.160156 -1.097656 11.851562 -0.8125 11.4375 -0.5625 C 11.03125 -0.320312 10.519531 -0.128906 9.90625 0.015625 C 9.289062 0.171875 8.554688 0.25 7.703125 0.25 Z M 7.703125 0.25 "/></g></g></g></svg>