<svg xmlns="http://www.w3.org/2000/svg" xmlns:xlink="http://www.w3.org/1999/xlink" width="500" zoomAndPan="magnify" viewBox="0 0 375 374.999991" height="500" preserveAspectRatio="xMidYMid meet" version="1.0"><defs><clipPath id="b2a140e7a6"><path d="M 188.996094 177.515625 L 238.910156 177.515625 L 238.910156 227.429688 L 188.996094 227.429688 Z M 188.996094 177.515625 " clip-rule="nonzero"/></clipPath><clipPath id="e1512a9ae5"><path d="M 213.953125 177.515625 C 200.171875 177.515625 188.996094 188.691406 188.996094 202.472656 C 188.996094 216.257812 200.171875 227.429688 213.953125 227.429688 C 227.738281 227.429688 238.910156 216.257812 238.910156 202.472656 C 238.910156 188.691406 227.738281 177.515625 213.953125 177.515625 Z M 213.953125 177.515625 " clip-rule="nonzero"/></clipPath><clipPath id="72bccbaf89"><path d="M 181.890625 202.804688 L 279.390625 202.804688 L 279.390625 280.660156 L 181.890625 280.660156 Z M 181.890625 202.804688 " clip-rule="nonzero"/></clipPath><clipPath id="fd4121864a"><path d="M 133.367188 202.472656 L 230.867188 202.472656 L 230.867188 280.332031 L 133.367188 280.332031 Z M 133.367188 202.472656 " clip-rule="nonzero"/></clipPath><clipPath id="85b765c3d0"><path d="M 73.4375 94.332031 L 304.4375 94.332031 L 304.4375 280.332031 L 73.4375 280.332031 Z M 73.4375 94.332031 " clip-rule="nonzero"/></clipPath></defs><g clip-path="url(#b2a140e7a6)"><g clip-path="url(#e1512a9ae5)"><path fill="#000000" d="M 188.996094 177.515625 L 238.910156 177.515625 L 238.910156 227.429688 L 188.996094 227.429688 Z M 188.996094 177.515625 " fill-opacity="1" fill-rule="nonzero"/></g></g><g clip-path="url(#72bccbaf89)"><path fill="#000000" d="M 69.605469 298.332031 C 69.65625 298.390625 69.6875 298.445312 70.039062 298.75 C 70.386719 299.0625 71.0625 299.621094 72.40625 300.683594 L 72.515625 300.683594 L 111.878906 333.5 C 111.988281 333.5 111.988281 333.5 112.101562 333.613281 C 112.550781 333.949219 112.777344 334.171875 113.109375 334.398438 C 113.5625 334.734375 114.007812 335.183594 114.570312 335.738281 C 115.019531 336.074219 115.355469 336.414062 115.691406 336.636719 C 116.027344 336.96875 116.472656 337.308594 117.039062 337.757812 C 118.15625 338.875 119.503906 339.882812 120.851562 340.894531 L 121.859375 341.679688 L 121.859375 341.789062 L 136.546875 353.882812 C 136.546875 353.996094 136.660156 353.996094 136.660156 354.109375 C 140.585938 357.46875 144.847656 360.941406 148.996094 364.296875 C 151.460938 366.316406 153.816406 368.222656 156.394531 370.460938 L 156.511719 370.574219 L 164.46875 377.179688 L 164.695312 377.402344 C 165.480469 378.015625 166.066406 378.519531 166.558594 378.957031 C 167.050781 379.390625 167.441406 379.753906 167.835938 380.089844 C 173.320312 384.847656 177.722656 388.671875 184.226562 388.671875 C 185.832031 388.671875 187.566406 388.441406 189.476562 387.929688 C 192.277344 387.144531 197.777344 382.332031 201.921875 378.632812 C 203.828125 376.953125 205.511719 375.496094 206.632812 374.714844 L 216.613281 366.429688 L 216.835938 366.203125 L 216.953125 366.203125 C 217.621094 365.53125 218.296875 364.972656 219.082031 364.296875 L 226.484375 358.25 C 226.820312 358.027344 227.042969 357.804688 227.265625 357.46875 C 227.941406 356.796875 228.609375 356.121094 229.957031 355.785156 C 230.183594 355.675781 230.40625 355.675781 230.742188 355.675781 C 231.976562 355.675781 232.988281 356.683594 232.988281 357.917969 L 232.871094 361.609375 C 232.761719 369.453125 232.648438 385.019531 233.324219 387.03125 C 233.433594 387.371094 233.546875 387.484375 233.546875 387.597656 C 233.546875 387.597656 233.546875 387.597656 233.769531 387.707031 C 234.601562 388.328125 236.625 388.480469 238.949219 388.480469 C 240.394531 388.480469 241.953125 388.421875 243.414062 388.378906 C 244.761719 388.265625 245.992188 388.265625 246.890625 388.265625 L 260.457031 388.265625 C 263.375 388.378906 265.28125 388.378906 265.839844 386.585938 C 266.402344 384.683594 266.179688 369.453125 266.066406 354.890625 C 265.839844 340.667969 265.726562 326.890625 266.625 325.210938 C 267.078125 324.316406 268.199219 323.421875 269.207031 322.636719 C 269.542969 322.414062 269.988281 322.078125 270.214844 321.851562 C 272.460938 319.726562 293.089844 302.367188 298.921875 297.660156 C 299.816406 296.878906 299.816406 296.207031 299.257812 295.195312 L 298.585938 294.300781 L 298.472656 294.191406 C 298.136719 293.855469 298.027344 293.519531 297.800781 293.292969 C 297.574219 293.070312 297.464844 292.847656 297.242188 292.625 C 297.128906 292.625 297.128906 292.511719 297.015625 292.398438 L 290.738281 284.894531 L 290.625 284.78125 L 289.503906 283.550781 C 288.941406 283.214844 288.382812 283.105469 287.820312 283.214844 C 287.035156 283.328125 286.136719 283.773438 285.355469 284.558594 C 285.242188 284.558594 285.242188 284.671875 285.128906 284.671875 L 185.664062 367.324219 C 184.878906 368.109375 183.644531 368.222656 182.75 367.433594 L 153.144531 343.019531 L 153.035156 343.019531 C 149.441406 339.773438 144.621094 335.851562 139.800781 331.933594 C 133.632812 327.003906 127.464844 321.964844 123.542969 318.382812 C 122.867188 317.707031 121.972656 316.925781 121.074219 316.253906 L 120.066406 315.46875 L 119.953125 315.355469 L 83.058594 284.671875 L 82.949219 284.558594 C 80.703125 282.429688 78.910156 283.214844 77.230469 285.007812 C 76.332031 286.015625 75.324219 287.359375 74.3125 288.703125 C 73.304688 289.933594 72.40625 291.164062 71.285156 292.398438 L 68.929688 295.308594 L 68.929688 295.421875 L 68.820312 295.648438 L 68.820312 297.101562 C 69.265625 297.660156 69.488281 298 69.605469 298.332031 Z M 102.796875 277.277344 L 102.796875 210.53125 C 102.796875 209.46875 103.019531 208.488281 103.414062 207.585938 C 103.804688 206.691406 104.363281 205.882812 105.039062 205.15625 C 106.382812 203.808594 108.289062 202.914062 110.421875 202.914062 L 121.296875 202.914062 C 115.242188 211.984375 115.917969 231.25 117.933594 238.304688 C 120.511719 246.929688 128.921875 263.390625 130.71875 265.628906 C 132.511719 267.984375 133.519531 268.652344 134.304688 269.105469 C 135.089844 269.4375 139.574219 270.226562 139.910156 270.226562 C 140.363281 270.226562 141.707031 276.605469 141.59375 277.726562 C 141.371094 278.847656 140.136719 282.09375 140.136719 283.660156 C 140.136719 285.117188 140.363281 290.832031 141.148438 293.519531 C 141.929688 296.207031 145.183594 301.359375 145.183594 301.359375 C 145.183594 301.359375 150.117188 303.035156 151.015625 303.597656 C 151.914062 304.160156 153.589844 305.164062 155.164062 305.054688 C 156.730469 305.054688 159.195312 305.613281 165.480469 300.683594 C 171.757812 295.871094 174.675781 293.628906 174.675781 291.613281 C 174.675781 289.597656 174.675781 285.789062 173.332031 284.78125 C 172.097656 283.773438 171.984375 279.96875 170.972656 279.183594 C 169.851562 278.285156 167.382812 276.269531 167.050781 275.933594 C 166.828125 275.597656 165.929688 268.652344 165.929688 268.652344 C 165.929688 268.652344 163.125 269.550781 162.898438 268.878906 L 162.226562 266.414062 L 160.992188 266.300781 L 160.992188 265.628906 C 160.660156 262.046875 155.945312 262.71875 153.480469 264.734375 C 152.246094 265.855469 150.339844 266.527344 149.894531 264.175781 C 149.554688 262.492188 149.21875 259.585938 150.003906 258.015625 C 151.015625 255.886719 154.15625 253.648438 154.15625 252.082031 C 154.265625 250.398438 153.144531 242.335938 154.828125 241.777344 C 156.511719 241.332031 160.769531 243.679688 162.003906 245.585938 C 163.234375 247.488281 166.039062 250.0625 167.609375 250.398438 C 169.070312 250.734375 173.886719 250.851562 175.460938 249.726562 C 176.917969 248.605469 180.054688 244.800781 180.28125 244.351562 C 180.503906 243.792969 183.53125 243.007812 184.207031 243.117188 C 184.878906 243.230469 186.558594 247.152344 187.347656 247.375 C 188.132812 247.714844 193.515625 247.824219 193.515625 247.824219 L 205.738281 266.863281 L 209.550781 264.0625 L 196.878906 244.914062 C 196.878906 244.914062 197.4375 242.671875 196.765625 239.871094 C 196.09375 237.183594 191.609375 232.257812 191.609375 231.472656 C 191.609375 230.578125 195.195312 224.753906 196.09375 223.746094 C 196.878906 222.738281 200.917969 219.265625 200.917969 219.265625 C 200.917969 219.265625 202.707031 213.890625 202.597656 212.773438 C 202.484375 211.652344 219.195312 203.585938 221.4375 203.25 C 221.996094 203.25 222.558594 203.140625 222.894531 202.914062 L 257.878906 202.914062 C 259.898438 202.914062 261.804688 203.808594 263.261719 205.15625 L 263.375 205.265625 C 264.609375 206.722656 265.394531 208.515625 265.394531 210.53125 L 265.394531 277.277344 L 184.09375 345.261719 L 102.796875 277.277344 " fill-opacity="1" fill-rule="nonzero"/></g><g clip-path="url(#fd4121864a)"><path fill="#000000" d="M 343.152344 184.800781 C 343.097656 184.746094 343.066406 184.691406 342.71875 184.382812 C 342.367188 184.074219 341.695312 183.515625 340.347656 182.449219 L 340.238281 182.449219 L 300.878906 149.632812 C 300.765625 149.632812 300.765625 149.632812 300.652344 149.523438 C 300.203125 149.1875 299.980469 148.960938 299.644531 148.738281 C 299.195312 148.402344 298.746094 147.953125 298.1875 147.394531 C 297.738281 147.0625 297.402344 146.722656 297.0625 146.5 C 296.730469 146.164062 296.28125 145.824219 295.71875 145.378906 C 294.597656 144.257812 293.253906 143.25 291.902344 142.242188 L 290.898438 141.457031 L 290.898438 141.347656 L 276.207031 129.25 C 276.207031 129.140625 276.097656 129.140625 276.097656 129.027344 C 272.171875 125.667969 267.910156 122.195312 263.761719 118.835938 C 261.292969 116.820312 258.941406 114.914062 256.359375 112.675781 L 256.246094 112.5625 L 248.289062 105.957031 L 248.058594 105.734375 C 247.273438 105.117188 246.6875 104.613281 246.199219 104.179688 C 245.707031 103.746094 245.3125 103.382812 244.917969 103.042969 C 239.4375 98.289062 235.03125 94.460938 228.527344 94.460938 C 226.921875 94.460938 225.1875 94.695312 223.277344 95.203125 C 220.476562 95.988281 214.980469 100.804688 210.832031 104.5 C 208.925781 106.179688 207.242188 107.636719 206.121094 108.417969 L 196.144531 116.707031 L 195.917969 116.929688 L 195.804688 116.929688 C 195.132812 117.605469 194.460938 118.164062 193.671875 118.835938 L 186.273438 124.882812 C 185.9375 125.109375 185.714844 125.332031 185.488281 125.667969 C 184.816406 126.339844 184.144531 127.011719 182.796875 127.347656 C 182.574219 127.460938 182.351562 127.460938 182.015625 127.460938 C 180.777344 127.460938 179.769531 126.449219 179.769531 125.21875 L 179.882812 121.523438 C 179.996094 113.683594 180.109375 98.117188 179.433594 96.101562 C 179.320312 95.761719 179.210938 95.652344 179.210938 95.539062 C 179.210938 95.539062 179.210938 95.539062 178.984375 95.429688 C 178.15625 94.808594 176.128906 94.652344 173.804688 94.652344 C 172.359375 94.652344 170.800781 94.714844 169.34375 94.753906 C 167.996094 94.871094 166.761719 94.871094 165.863281 94.871094 L 152.296875 94.871094 C 149.378906 94.753906 147.476562 94.753906 146.914062 96.546875 C 146.351562 98.453125 146.578125 113.683594 146.6875 128.246094 C 146.914062 142.464844 147.027344 156.242188 146.128906 157.925781 C 145.679688 158.820312 144.558594 159.710938 143.550781 160.496094 C 143.214844 160.722656 142.765625 161.058594 142.542969 161.28125 C 140.296875 163.410156 119.664062 180.769531 113.835938 185.472656 C 112.9375 186.257812 112.9375 186.929688 113.496094 187.9375 L 114.171875 188.835938 L 114.28125 188.945312 C 114.617188 189.28125 114.730469 189.617188 114.957031 189.839844 C 115.179688 190.066406 115.292969 190.289062 115.515625 190.511719 C 115.628906 190.511719 115.628906 190.621094 115.738281 190.734375 L 122.019531 198.242188 L 122.128906 198.351562 L 123.25 199.585938 C 123.8125 199.917969 124.371094 200.03125 124.933594 199.917969 C 125.71875 199.808594 126.617188 199.359375 127.402344 198.578125 C 127.511719 198.578125 127.511719 198.464844 127.628906 198.464844 L 227.09375 115.8125 C 227.875 115.027344 229.113281 114.914062 230.003906 115.699219 L 259.609375 140.113281 L 259.722656 140.113281 C 263.3125 143.363281 268.132812 147.28125 272.957031 151.199219 C 279.121094 156.128906 285.289062 161.171875 289.214844 164.753906 C 289.890625 165.425781 290.785156 166.207031 291.683594 166.882812 L 292.691406 167.667969 L 292.800781 167.777344 L 329.695312 198.464844 L 329.808594 198.578125 C 332.050781 200.703125 333.847656 199.917969 335.527344 198.128906 C 336.425781 197.117188 337.433594 195.777344 338.441406 194.433594 C 339.453125 193.203125 340.347656 191.96875 341.472656 190.734375 L 343.828125 187.824219 L 343.828125 187.714844 L 343.9375 187.488281 L 343.9375 186.03125 C 343.492188 185.472656 343.265625 185.136719 343.152344 184.800781 Z M 309.960938 205.859375 L 309.960938 272.605469 C 309.960938 273.667969 309.734375 274.648438 309.34375 275.546875 C 308.949219 276.445312 308.390625 277.253906 307.714844 277.980469 C 306.371094 279.324219 304.464844 280.21875 302.335938 280.21875 L 291.457031 280.21875 C 297.515625 271.148438 296.839844 251.886719 294.820312 244.832031 C 292.242188 236.207031 283.832031 219.746094 282.039062 217.503906 C 280.246094 215.152344 279.238281 214.480469 278.449219 214.03125 C 277.664062 213.695312 273.179688 212.910156 272.84375 212.910156 C 272.394531 212.910156 271.050781 206.527344 271.160156 205.410156 C 271.386719 204.289062 272.617188 201.039062 272.617188 199.472656 C 272.617188 198.015625 272.394531 192.304688 271.605469 189.617188 C 270.824219 186.929688 267.574219 181.777344 267.574219 181.777344 C 267.574219 181.777344 262.640625 180.097656 261.742188 179.539062 C 260.84375 178.976562 259.164062 177.972656 257.59375 178.082031 C 256.023438 178.082031 253.558594 177.519531 247.277344 182.449219 C 240.996094 187.265625 238.082031 189.503906 238.082031 191.519531 C 238.082031 193.535156 238.082031 197.347656 239.425781 198.351562 C 240.65625 199.359375 240.773438 203.167969 241.785156 203.953125 C 242.902344 204.847656 245.371094 206.867188 245.707031 207.199219 C 245.929688 207.535156 246.824219 214.480469 246.824219 214.480469 C 246.824219 214.480469 249.632812 213.585938 249.855469 214.257812 L 250.527344 216.71875 L 251.761719 216.832031 L 251.761719 217.503906 C 252.097656 221.085938 256.808594 220.414062 259.273438 218.398438 C 260.507812 217.277344 262.414062 216.609375 262.863281 218.960938 C 263.199219 220.640625 263.535156 223.550781 262.75 225.121094 C 261.742188 227.246094 258.601562 229.488281 258.601562 231.054688 C 258.488281 232.734375 259.609375 240.796875 257.929688 241.359375 C 256.246094 241.804688 251.984375 239.457031 250.753906 237.550781 C 249.519531 235.648438 246.714844 233.070312 245.148438 232.734375 C 243.6875 232.402344 238.867188 232.285156 237.296875 233.410156 C 235.839844 234.527344 232.699219 238.335938 232.472656 238.78125 C 232.25 239.34375 229.222656 240.128906 228.546875 240.015625 C 227.875 239.902344 226.195312 235.984375 225.410156 235.757812 C 224.621094 235.421875 219.242188 235.308594 219.242188 235.308594 L 207.019531 216.269531 L 203.207031 219.070312 L 215.878906 238.222656 C 215.878906 238.222656 215.316406 240.460938 215.988281 243.265625 C 216.664062 245.953125 221.148438 250.878906 221.148438 251.664062 C 221.148438 252.558594 217.5625 258.382812 216.664062 259.390625 C 215.878906 260.398438 211.839844 263.871094 211.839844 263.871094 C 211.839844 263.871094 210.046875 269.246094 210.160156 270.363281 C 210.269531 271.484375 193.5625 279.550781 191.320312 279.886719 C 190.761719 279.886719 190.199219 279.996094 189.863281 280.21875 L 154.875 280.21875 C 152.855469 280.21875 150.949219 279.324219 149.492188 277.980469 L 149.378906 277.867188 C 148.148438 276.414062 147.363281 274.621094 147.363281 272.605469 L 147.363281 205.859375 L 228.660156 137.875 L 309.960938 205.859375 " fill-opacity="1" fill-rule="nonzero"/></g><g clip-path="url(#85b765c3d0)"><path fill="#0cc0df" d="M 303.765625 184.960938 C 303.710938 184.90625 303.683594 184.851562 303.332031 184.542969 C 302.984375 184.234375 302.308594 183.671875 300.964844 182.605469 L 300.851562 182.605469 L 261.472656 149.730469 C 261.359375 149.730469 261.359375 149.730469 261.246094 149.621094 C 260.796875 149.285156 260.574219 149.058594 260.238281 148.832031 C 259.785156 148.496094 259.339844 148.046875 258.777344 147.488281 C 258.328125 147.152344 257.992188 146.8125 257.65625 146.589844 C 257.320312 146.257812 256.875 145.917969 256.308594 145.46875 C 255.1875 144.347656 253.84375 143.335938 252.492188 142.328125 L 251.488281 141.539062 L 251.488281 141.429688 L 236.789062 129.3125 C 236.789062 129.203125 236.675781 129.203125 236.675781 129.089844 C 232.75 125.722656 228.484375 122.242188 224.335938 118.878906 C 221.867188 116.859375 219.511719 114.949219 216.929688 112.707031 L 216.816406 112.59375 L 208.855469 105.976562 L 208.625 105.753906 C 207.839844 105.136719 207.253906 104.632812 206.761719 104.195312 C 206.273438 103.761719 205.878906 103.398438 205.484375 103.058594 C 200 98.292969 195.59375 94.460938 189.085938 94.460938 C 187.480469 94.460938 185.742188 94.695312 183.832031 95.207031 C 181.03125 95.992188 175.53125 100.816406 171.382812 104.519531 C 169.472656 106.199219 167.789062 107.660156 166.667969 108.445312 L 156.683594 116.746094 L 156.460938 116.972656 L 156.34375 116.972656 C 155.671875 117.644531 155 118.203125 154.210938 118.878906 L 146.808594 124.9375 C 146.472656 125.164062 146.25 125.386719 146.023438 125.722656 C 145.351562 126.394531 144.679688 127.070312 143.332031 127.40625 C 143.105469 127.519531 142.882812 127.519531 142.546875 127.519531 C 141.3125 127.519531 140.300781 126.507812 140.300781 125.273438 L 140.414062 121.574219 C 140.527344 113.71875 140.640625 98.125 139.964844 96.105469 C 139.851562 95.765625 139.742188 95.652344 139.742188 95.542969 C 139.742188 95.542969 139.742188 95.542969 139.515625 95.429688 C 138.6875 94.808594 136.660156 94.652344 134.332031 94.652344 C 132.890625 94.652344 131.328125 94.714844 129.867188 94.757812 C 128.519531 94.871094 127.289062 94.871094 126.390625 94.871094 L 112.816406 94.871094 C 109.898438 94.757812 107.992188 94.757812 107.429688 96.550781 C 106.867188 98.457031 107.09375 113.71875 107.203125 128.304688 C 107.429688 142.550781 107.542969 156.351562 106.644531 158.035156 C 106.195312 158.933594 105.070312 159.828125 104.0625 160.613281 C 103.726562 160.839844 103.28125 161.175781 103.054688 161.398438 C 100.808594 163.53125 80.167969 180.921875 74.332031 185.632812 C 73.4375 186.417969 73.4375 187.09375 73.996094 188.105469 L 74.667969 189 L 74.78125 189.113281 C 75.117188 189.449219 75.226562 189.785156 75.457031 190.011719 C 75.679688 190.234375 75.792969 190.457031 76.015625 190.679688 C 76.125 190.679688 76.125 190.792969 76.238281 190.90625 L 82.519531 198.425781 L 82.632812 198.535156 L 83.753906 199.769531 C 84.316406 200.105469 84.875 200.21875 85.441406 200.105469 C 86.226562 199.996094 87.125 199.546875 87.90625 198.761719 C 88.019531 198.761719 88.019531 198.648438 88.132812 198.648438 L 187.648438 115.847656 C 188.433594 115.0625 189.667969 114.949219 190.5625 115.738281 L 220.183594 140.195312 L 220.292969 140.195312 C 223.886719 143.449219 228.710938 147.375 233.535156 151.300781 C 239.703125 156.238281 245.875 161.289062 249.800781 164.878906 C 250.476562 165.550781 251.375 166.335938 252.269531 167.011719 L 253.28125 167.796875 L 253.390625 167.90625 L 290.304688 198.648438 L 290.417969 198.761719 C 292.660156 200.890625 294.457031 200.105469 296.136719 198.3125 C 297.035156 197.300781 298.046875 195.957031 299.054688 194.609375 C 300.066406 193.375 300.964844 192.140625 302.085938 190.90625 L 304.441406 187.988281 L 304.441406 187.878906 L 304.550781 187.652344 L 304.550781 186.195312 C 304.105469 185.632812 303.882812 185.296875 303.765625 184.960938 Z M 270.558594 206.054688 L 270.558594 272.917969 C 270.558594 273.984375 270.332031 274.96875 269.941406 275.867188 C 269.546875 276.765625 268.988281 277.574219 268.3125 278.304688 C 266.96875 279.652344 265.058594 280.546875 262.929688 280.546875 L 252.046875 280.546875 C 258.105469 271.460938 257.429688 252.164062 255.410156 245.097656 C 252.832031 236.457031 244.417969 219.964844 242.621094 217.722656 C 240.828125 215.363281 239.820312 214.695312 239.03125 214.242188 C 238.246094 213.90625 233.757812 213.121094 233.425781 213.121094 C 232.972656 213.121094 231.628906 206.726562 231.738281 205.605469 C 231.964844 204.480469 233.195312 201.226562 233.195312 199.660156 C 233.195312 198.199219 232.972656 192.476562 232.1875 189.785156 C 231.402344 187.09375 228.148438 181.929688 228.148438 181.929688 C 228.148438 181.929688 223.210938 180.25 222.3125 179.6875 C 221.417969 179.125 219.738281 178.117188 218.164062 178.230469 C 216.59375 178.230469 214.128906 177.667969 207.84375 182.605469 C 201.558594 187.429688 198.644531 189.671875 198.644531 191.691406 C 198.644531 193.710938 198.644531 197.527344 199.988281 198.535156 C 201.21875 199.546875 201.335938 203.359375 202.347656 204.148438 C 203.46875 205.042969 205.9375 207.0625 206.273438 207.398438 C 206.496094 207.734375 207.390625 214.695312 207.390625 214.695312 C 207.390625 214.695312 210.199219 213.796875 210.421875 214.46875 L 211.097656 216.933594 L 212.332031 217.050781 L 212.332031 217.722656 C 212.664062 221.3125 217.382812 220.636719 219.847656 218.617188 C 221.082031 217.496094 222.988281 216.824219 223.4375 219.179688 C 223.773438 220.863281 224.109375 223.777344 223.324219 225.351562 C 222.3125 227.480469 219.171875 229.726562 219.171875 231.296875 C 219.0625 232.980469 220.183594 241.054688 218.5 241.617188 C 216.816406 242.066406 212.554688 239.710938 211.320312 237.804688 C 210.085938 235.898438 207.28125 233.316406 205.710938 232.980469 C 204.25 232.644531 199.429688 232.527344 197.855469 233.652344 C 196.398438 234.777344 193.257812 238.589844 193.035156 239.039062 C 192.808594 239.597656 189.78125 240.382812 189.105469 240.273438 C 188.433594 240.160156 186.75 236.234375 185.964844 236.007812 C 185.179688 235.671875 179.792969 235.558594 179.792969 235.558594 L 167.566406 216.484375 L 163.75 219.289062 L 176.429688 238.476562 C 176.429688 238.476562 175.867188 240.71875 176.539062 243.527344 C 177.214844 246.21875 181.699219 251.15625 181.699219 251.941406 C 181.699219 252.835938 178.113281 258.671875 177.214844 259.679688 C 176.429688 260.691406 172.386719 264.167969 172.386719 264.167969 C 172.386719 264.167969 170.59375 269.554688 170.707031 270.675781 C 170.816406 271.796875 154.101562 279.875 151.855469 280.210938 C 151.296875 280.210938 150.734375 280.324219 150.398438 280.546875 L 115.394531 280.546875 C 113.375 280.546875 111.46875 279.652344 110.011719 278.304688 L 109.898438 278.191406 C 108.664062 276.734375 107.878906 274.9375 107.878906 272.917969 L 107.878906 206.054688 L 189.21875 137.949219 L 270.558594 206.054688 " fill-opacity="1" fill-rule="nonzero"/></g></svg>